<svg width="24" height="25" viewBox="0 0 24 25" fill="none" xmlns="http://www.w3.org/2000/svg">
<path d="M6.83472 6.29321H17.4096" stroke="#BDBDC1" stroke-width="1.69953" stroke-linecap="round" stroke-linejoin="round"/>
<path d="M6.83472 11.3918H17.4096" stroke="#BDBDC1" stroke-width="1.69953" stroke-linecap="round" stroke-linejoin="round"/>
<path d="M20.0534 1.19464H4.19108C2.73099 1.19464 1.54736 2.336 1.54736 3.74394V21.589C1.54736 22.9969 2.73099 24.1383 4.19108 24.1383H20.0534C21.5134 24.1383 22.6971 22.9969 22.6971 21.589V3.74394C22.6971 2.336 21.5134 1.19464 20.0534 1.19464Z" stroke="#BDBDC1" stroke-width="1.69953" stroke-linecap="round" stroke-linejoin="round"/>
<path d="M1.54736 16.4904H7.49572C8.02159 16.4904 8.52592 16.6919 8.89776 17.0504C9.26961 17.409 9.47851 17.8953 9.47851 18.4024V18.4024C9.47851 18.9095 9.68741 19.3958 10.0593 19.7544C10.4311 20.1129 10.9354 20.3144 11.4613 20.3144H12.7831C13.309 20.3144 13.8133 20.1129 14.1852 19.7544C14.557 19.3958 14.7659 18.9095 14.7659 18.4024C14.7659 17.8953 14.9748 17.409 15.3467 17.0504C15.7185 16.6919 16.2229 16.4904 16.7487 16.4904H22.6971" stroke="#BDBDC1" stroke-width="1.69953" stroke-linecap="round" stroke-linejoin="round"/>
</svg>
