<svg width="18" height="21" viewBox="0 0 18 21" fill="none" xmlns="http://www.w3.org/2000/svg">
<path d="M4.97656 20.0488C4.34375 20.0488 3.84863 19.8848 3.49121 19.5566C3.13965 19.2344 2.95215 18.7598 2.92871 18.1328L2.375 5.52051H1.21484C0.974609 5.52051 0.769531 5.43848 0.599609 5.27441C0.429688 5.11035 0.344727 4.90527 0.344727 4.65918C0.344727 4.41895 0.429688 4.2168 0.599609 4.05273C0.769531 3.88867 0.974609 3.80664 1.21484 3.80664H17.0439C17.29 3.80664 17.4951 3.88867 17.6592 4.05273C17.8291 4.21094 17.9141 4.41309 17.9141 4.65918C17.9141 4.90527 17.8291 5.11035 17.6592 5.27441C17.4951 5.43848 17.29 5.52051 17.0439 5.52051H15.8926L15.3389 18.1328C15.3096 18.7598 15.1191 19.2344 14.7676 19.5566C14.416 19.8848 13.9209 20.0488 13.2822 20.0488H4.97656ZM6.29492 17.2539C6.49414 17.2539 6.65234 17.1953 6.76953 17.0781C6.88672 16.9609 6.94238 16.8086 6.93652 16.6211L6.67285 7.42773C6.66699 7.24023 6.60254 7.09082 6.47949 6.97949C6.3623 6.86816 6.20996 6.8125 6.02246 6.8125C5.82324 6.8125 5.66504 6.87109 5.54785 6.98828C5.43652 7.09961 5.38086 7.24902 5.38086 7.43652L5.65332 16.6299C5.65332 16.8174 5.71191 16.9697 5.8291 17.0869C5.95215 17.1982 6.10742 17.2539 6.29492 17.2539ZM9.13379 17.2539C9.32715 17.2539 9.48242 17.1982 9.59961 17.0869C9.72266 16.9697 9.78418 16.8174 9.78418 16.6299V7.42773C9.78418 7.24609 9.72266 7.09961 9.59961 6.98828C9.48242 6.87109 9.32715 6.8125 9.13379 6.8125C8.93457 6.8125 8.77344 6.87109 8.65039 6.98828C8.5332 7.09961 8.47461 7.24609 8.47461 7.42773V16.6299C8.47461 16.8174 8.5332 16.9697 8.65039 17.0869C8.77344 17.1982 8.93457 17.2539 9.13379 17.2539ZM11.9639 17.2539C12.1514 17.2539 12.3037 17.1982 12.4209 17.0869C12.5439 16.9697 12.6084 16.8174 12.6143 16.6299L12.8779 7.43652C12.8779 7.24902 12.8193 7.09961 12.7021 6.98828C12.5908 6.87109 12.4355 6.8125 12.2363 6.8125C12.0488 6.8125 11.8936 6.86816 11.7705 6.97949C11.6533 7.09082 11.5918 7.24316 11.5859 7.43652L11.3223 16.6211C11.3164 16.8086 11.3721 16.9609 11.4893 17.0781C11.6064 17.1953 11.7646 17.2539 11.9639 17.2539ZM4.94141 4.14062V2.50586C4.94141 1.78516 5.16113 1.22266 5.60059 0.818359C6.0459 0.414062 6.66406 0.211914 7.45508 0.211914H10.7949C11.5859 0.211914 12.2012 0.414062 12.6406 0.818359C13.0801 1.22266 13.2998 1.78516 13.2998 2.50586V4.14062H11.3311V2.58496C11.3311 2.40332 11.2725 2.25977 11.1553 2.1543C11.0381 2.04297 10.877 1.9873 10.6719 1.9873H7.58691C7.38184 1.9873 7.21777 2.04297 7.09473 2.1543C6.97754 2.25977 6.91895 2.40332 6.91895 2.58496V4.14062H4.94141Z" fill="#BDBDC1"/>
</svg>
