<svg width="25" height="18" viewBox="0 0 25 18" fill="none" xmlns="http://www.w3.org/2000/svg">
<path d="M12.9219 16.7393C11.7383 16.7393 10.6191 16.5957 9.56445 16.3086C8.51562 16.0215 7.5459 15.6436 6.65527 15.1748C5.77051 14.7061 4.97363 14.1904 4.26465 13.6279C3.56152 13.0596 2.96094 12.4912 2.46289 11.9229C1.96484 11.3486 1.58398 10.8213 1.32031 10.3408C1.0625 9.85449 0.933594 9.46191 0.933594 9.16309C0.933594 8.90527 1.0332 8.57422 1.23242 8.16992C1.43164 7.76562 1.71875 7.32324 2.09375 6.84277C2.47461 6.3623 2.93164 5.87598 3.46484 5.38379C4.00391 4.88574 4.61328 4.41406 5.29297 3.96875L8.57129 7.25586C8.43652 7.54883 8.33398 7.85645 8.26367 8.17871C8.19336 8.50098 8.1582 8.83203 8.1582 9.17188C8.1582 9.81641 8.28125 10.4229 8.52734 10.9912C8.77344 11.5596 9.11328 12.0635 9.54688 12.5029C9.98633 12.9424 10.4932 13.2881 11.0674 13.54C11.6416 13.7861 12.2598 13.9092 12.9219 13.9092C13.2559 13.9092 13.5811 13.874 13.8975 13.8037C14.2139 13.7334 14.5156 13.6279 14.8027 13.4873L17.2988 15.9922C16.6426 16.2266 15.9482 16.4082 15.2158 16.5371C14.4834 16.6719 13.7188 16.7393 12.9219 16.7393ZM20.7441 14.2607L17.3428 10.8418C17.46 10.584 17.5449 10.3145 17.5977 10.0332C17.6562 9.75195 17.6855 9.46484 17.6855 9.17188C17.6855 8.50977 17.5625 7.8916 17.3164 7.31738C17.0703 6.74316 16.7275 6.23926 16.2881 5.80566C15.8545 5.37207 15.3477 5.03516 14.7676 4.79492C14.1934 4.55469 13.5781 4.43457 12.9219 4.43457C12.6289 4.43457 12.3418 4.46387 12.0605 4.52246C11.7793 4.5752 11.5098 4.65137 11.252 4.75098L8.76465 2.26367C9.39746 2.05859 10.0596 1.89746 10.751 1.78027C11.4482 1.65723 12.1719 1.5957 12.9219 1.5957C14.1172 1.5957 15.2422 1.73926 16.2969 2.02637C17.3516 2.31348 18.3242 2.69141 19.2148 3.16016C20.1055 3.62891 20.8994 4.14746 21.5967 4.71582C22.2998 5.27832 22.8975 5.84668 23.3896 6.4209C23.8818 6.98926 24.2568 7.5166 24.5146 8.00293C24.7725 8.4834 24.9014 8.87012 24.9014 9.16309C24.9014 9.50879 24.7314 9.97168 24.3916 10.5518C24.0576 11.126 23.5771 11.7441 22.9502 12.4062C22.3291 13.0625 21.5938 13.6807 20.7441 14.2607ZM10.0742 9.05762C10.0742 9.01074 10.0742 8.96387 10.0742 8.91699C10.0801 8.87012 10.0859 8.82324 10.0918 8.77637L13.1328 11.8262C13.0859 11.8262 13.0391 11.8291 12.9922 11.835C12.9512 11.835 12.9102 11.835 12.8691 11.835C12.3594 11.835 11.8906 11.7119 11.4629 11.4658C11.041 11.2139 10.7041 10.877 10.4521 10.4551C10.2002 10.0332 10.0742 9.56738 10.0742 9.05762ZM15.7432 8.9873C15.7432 9.02832 15.7432 9.07227 15.7432 9.11914C15.7432 9.16016 15.7402 9.19824 15.7344 9.2334L12.7197 6.21875C12.7607 6.21875 12.8018 6.21875 12.8428 6.21875C12.8838 6.21289 12.9248 6.20996 12.9658 6.20996C13.4814 6.20996 13.9502 6.33594 14.3721 6.58789C14.7939 6.83398 15.1279 7.16797 15.374 7.58984C15.6201 8.01172 15.7432 8.47754 15.7432 8.9873ZM19.9092 17.0293L4.87988 2.00879C4.73926 1.87402 4.66895 1.70703 4.66895 1.50781C4.66895 1.30273 4.73926 1.13281 4.87988 0.998047C5.02051 0.857422 5.19043 0.790039 5.38965 0.795898C5.58887 0.795898 5.75879 0.863281 5.89941 0.998047L20.9287 16.0186C21.0693 16.1592 21.1396 16.3232 21.1396 16.5107C21.1455 16.7041 21.0752 16.877 20.9287 17.0293C20.7881 17.1816 20.6182 17.2549 20.4189 17.249C20.2256 17.2432 20.0557 17.1699 19.9092 17.0293Z" fill="#BDBDC1"/>
</svg>
