<svg width="24" height="24" viewBox="0 0 24 24" fill="none" xmlns="http://www.w3.org/2000/svg">
<path d="M6.88889 22.7696H4.44444C3.79614 22.7696 3.17438 22.5104 2.71596 22.049C2.25754 21.5876 2 20.9619 2 20.3094V9.59485C2.00023 9.2263 2.08272 8.86252 2.24138 8.53036C2.40004 8.19821 2.63082 7.90617 2.91667 7.67583L10.25 1.77117C10.6836 1.4218 11.2224 1.23145 11.7778 1.23145C12.3332 1.23145 12.872 1.4218 13.3056 1.77117L20.6389 7.67583C20.9247 7.90617 21.1555 8.19821 21.3142 8.53036C21.4728 8.86252 21.5553 9.2263 21.5556 9.59485V20.3094C21.5556 20.9619 21.298 21.5876 20.8396 22.049C20.3812 22.5104 19.7594 22.7696 19.1111 22.7696H16.6667" stroke="#4B4B4D" stroke-width="2" stroke-linecap="round" stroke-linejoin="round"/>
<path d="M8.11133 15.3888H15.4447" stroke="#4B4B4D" stroke-width="2" stroke-linecap="round" stroke-linejoin="round"/>
<path d="M11.7773 11.6984V22.7696" stroke="#4B4B4D" stroke-width="2" stroke-linecap="round" stroke-linejoin="round"/>
</svg>
