<svg width="24" height="24" viewBox="0 0 24 24" fill="none" xmlns="http://www.w3.org/2000/svg">
<g clip-path="url(#clip0_68_53)">
<path d="M12.2 19.83C12.07 19.83 11.94 19.81 11.82 19.76C11.7 19.71 11.59 19.63 11.49 19.54C11.4 19.45 11.33 19.34 11.28 19.22C11.22 19.1 11.2 18.96 11.2 18.83C11.2 18.7 11.22 18.57 11.28 18.45C11.33 18.33 11.4 18.22 11.49 18.13C11.88 17.74 12.51 17.73 12.9 18.13C13.08 18.32 13.19 18.57 13.19 18.83C13.19 18.96 13.16 19.1 13.11 19.22C12.95 19.59 12.59 19.83 12.19 19.83H12.2Z" fill="#222224"/>
<path d="M7.8999 8.66H16.4999" stroke="#8247F6" stroke-width="2" stroke-linecap="round" stroke-linejoin="round"/>
<path d="M7.8999 13.75H16.4999" stroke="#8247F6" stroke-width="2" stroke-linecap="round" stroke-linejoin="round"/>
<path d="M18.03 1H6.37C5.06108 1 4 2.06108 4 3.37V20.28C4 21.5889 5.06108 22.65 6.37 22.65H18.03C19.3389 22.65 20.4 21.5889 20.4 20.28V3.37C20.4 2.06108 19.3389 1 18.03 1Z" stroke="#222224" stroke-width="2" stroke-miterlimit="10"/>
<path d="M7.52002 1.18L10.09 3.51H14.3L16.88 1.18H7.52002Z" fill="#222224" stroke="#222224" stroke-width="2" stroke-linecap="round" stroke-linejoin="round"/>
</g>
<defs>
<clipPath id="clip0_68_53">
<rect width="18.4" height="23.65" fill="white" transform="translate(3)"/>
</clipPath>
</defs>
</svg>
