<svg width="25" height="27" viewBox="0 0 25 27" fill="none" xmlns="http://www.w3.org/2000/svg">
<g clip-path="url(#clip0_1_717)">
<path d="M7.54378 25.1063H4.90006C4.19891 25.1063 3.52647 24.8309 3.03067 24.3408C2.53488 23.8508 2.25635 23.186 2.25635 22.4929V11.1119C2.2566 10.7205 2.34581 10.334 2.51741 9.98123C2.689 9.62841 2.93859 9.31821 3.24774 9.07354L11.1789 2.80157C11.6478 2.43047 12.2305 2.22827 12.8312 2.22827C13.4319 2.22827 14.0146 2.43047 14.4835 2.80157L22.4147 9.07354C22.7238 9.31821 22.9734 9.62841 23.145 9.98123C23.3166 10.334 23.4058 10.7205 23.4061 11.1119V22.4929C23.4061 23.186 23.1275 23.8508 22.6317 24.3408C22.1359 24.8309 21.4635 25.1063 20.7623 25.1063H18.1186" stroke="#222224" stroke-width="1.69953" stroke-linecap="round" stroke-linejoin="round"/>
<path d="M8.8656 17.2663H16.7967" stroke="#8C10FE" stroke-width="1.69953" stroke-linecap="round" stroke-linejoin="round"/>
<path d="M12.8312 13.3463V25.1063" stroke="#8C10FE" stroke-width="1.69953" stroke-linecap="round" stroke-linejoin="round"/>
</g>
<defs>
<clipPath id="clip0_1_717">
<rect width="23.7934" height="25.493" fill="white" transform="translate(0.934448 0.919983)"/>
</clipPath>
</defs>
</svg>
