<svg width="24" height="24" viewBox="0 0 24 24" fill="none" xmlns="http://www.w3.org/2000/svg">
<g clip-path="url(#clip0_68_103)">
<path d="M16.3801 17.2442C16.0025 16.3979 15.388 15.6791 14.6107 15.1744C13.8335 14.6698 12.9268 14.4009 12.0001 14.4002C11.0734 14.4009 10.1667 14.6698 9.3895 15.1744C8.61227 15.6791 7.99775 16.3979 7.62012 17.2442" stroke="#4B4B4D" stroke-width="2" stroke-linecap="round" stroke-linejoin="round"/>
<path d="M12.0006 10.7998C13.3261 10.7998 14.4006 9.7253 14.4006 8.39982C14.4006 7.07433 13.3261 5.99982 12.0006 5.99982C10.6751 5.99982 9.60059 7.07433 9.60059 8.39982C9.60059 9.7253 10.6751 10.7998 12.0006 10.7998Z" stroke="#4B4B4D" stroke-width="2" stroke-linecap="round" stroke-linejoin="round"/>
<path d="M12.0002 22.8C17.9649 22.8 22.8002 17.9647 22.8002 12C22.8002 6.03534 17.9649 1.20001 12.0002 1.20001C6.03552 1.20001 1.2002 6.03534 1.2002 12C1.2002 17.9647 6.03552 22.8 12.0002 22.8Z" stroke="#4B4B4D" stroke-width="2" stroke-linecap="round" stroke-linejoin="round"/>
</g>
<defs>
<clipPath id="clip0_68_103">
<rect width="24" height="24" fill="white"/>
</clipPath>
</defs>
</svg>
