<svg width="24" height="24" viewBox="0 0 24 24" fill="none" xmlns="http://www.w3.org/2000/svg">
<path d="M11.8 11.2353C13.073 11.2353 14.2939 11.7311 15.1941 12.6136C16.0943 13.4961 16.6 14.6931 16.6 15.9412V20.6471H7V15.9412C7 14.6931 7.50571 13.4961 8.40589 12.6136C9.30606 11.7311 10.527 11.2353 11.8 11.2353V11.2353Z" stroke="#4B4B4D" stroke-width="2" stroke-linecap="round" stroke-linejoin="round"/>
<path d="M11.8004 7.70588C13.1259 7.70588 14.2004 6.65243 14.2004 5.35294C14.2004 4.05345 13.1259 3 11.8004 3C10.4749 3 9.40039 4.05345 9.40039 5.35294C9.40039 6.65243 10.4749 7.70588 11.8004 7.70588Z" stroke="#4B4B4D" stroke-width="2" stroke-linecap="round" stroke-linejoin="round"/>
<path d="M3.4 20.6471C2.76348 20.6471 2.15303 20.3992 1.70295 19.9579C1.25286 19.5166 1 18.9182 1 18.2941V16.8235C0.999238 16.0012 1.29136 15.2045 1.82594 14.5708C2.36052 13.9372 3.104 13.5064 3.928 13.3529" stroke="#4B4B4D" stroke-width="2" stroke-linecap="round" stroke-linejoin="round"/>
<path d="M4.60039 10.0588C5.26313 10.0588 5.80039 9.5321 5.80039 8.88236C5.80039 8.23261 5.26313 7.70589 4.60039 7.70589C3.93765 7.70589 3.40039 8.23261 3.40039 8.88236C3.40039 9.5321 3.93765 10.0588 4.60039 10.0588Z" stroke="#4B4B4D" stroke-width="2" stroke-linecap="round" stroke-linejoin="round"/>
<path d="M20.1999 20.6471C20.8364 20.6471 21.4468 20.3992 21.8969 19.9579C22.347 19.5166 22.5999 18.9182 22.5999 18.2941V16.8235C22.6006 16.0012 22.3085 15.2045 21.7739 14.5708C21.2394 13.9372 20.4959 13.5064 19.6719 13.3529" stroke="#4B4B4D" stroke-width="2" stroke-linecap="round" stroke-linejoin="round"/>
<path d="M18.9998 10.0588C19.6625 10.0588 20.1998 9.5321 20.1998 8.88236C20.1998 8.23261 19.6625 7.70589 18.9998 7.70589C18.3371 7.70589 17.7998 8.23261 17.7998 8.88236C17.7998 9.5321 18.3371 10.0588 18.9998 10.0588Z" stroke="#4B4B4D" stroke-width="2" stroke-linecap="round" stroke-linejoin="round"/>
</svg>
