<svg width="26" height="21" viewBox="0 0 26 21" fill="none" xmlns="http://www.w3.org/2000/svg">
<path d="M12.7512 10.0667C14.1034 10.0667 15.4003 10.5723 16.3564 11.4722C17.3126 12.3722 17.8498 13.5927 17.8498 14.8654V19.6641H7.65259V14.8654C7.65259 13.5927 8.18976 12.3722 9.14593 11.4722C10.1021 10.5723 11.3989 10.0667 12.7512 10.0667V10.0667Z" stroke="#BDBDC1" stroke-width="1.69953" stroke-linecap="round" stroke-linejoin="round"/>
<path d="M12.7512 6.46774C14.1591 6.46774 15.3005 5.39352 15.3005 4.0684C15.3005 2.74329 14.1591 1.66907 12.7512 1.66907C11.3433 1.66907 10.2019 2.74329 10.2019 4.0684C10.2019 5.39352 11.3433 6.46774 12.7512 6.46774Z" stroke="#BDBDC1" stroke-width="1.69953" stroke-linecap="round" stroke-linejoin="round"/>
<path d="M3.82872 19.6641C3.1526 19.6641 2.50418 19.4113 2.02609 18.9613C1.54801 18.5114 1.27942 17.9011 1.27942 17.2647V15.7652C1.27861 14.9266 1.58891 14.1142 2.15674 13.468C2.72457 12.8219 3.5143 12.3827 4.38956 12.2261" stroke="#BDBDC1" stroke-width="1.69953" stroke-linecap="round" stroke-linejoin="round"/>
<path d="M5.10338 8.86708C5.80735 8.86708 6.37803 8.32997 6.37803 7.66741C6.37803 7.00485 5.80735 6.46774 5.10338 6.46774C4.39941 6.46774 3.82874 7.00485 3.82874 7.66741C3.82874 8.32997 4.39941 8.86708 5.10338 8.86708Z" stroke="#BDBDC1" stroke-width="1.69953" stroke-linecap="round" stroke-linejoin="round"/>
<path d="M21.6738 19.6641C22.3499 19.6641 22.9983 19.4113 23.4764 18.9613C23.9545 18.5114 24.2231 17.9011 24.2231 17.2647V15.7652C24.2239 14.9266 23.9136 14.1142 23.3457 13.468C22.7779 12.8219 21.9882 12.3827 21.1129 12.2261" stroke="#BDBDC1" stroke-width="1.69953" stroke-linecap="round" stroke-linejoin="round"/>
<path d="M20.3992 8.86708C21.1031 8.86708 21.6738 8.32997 21.6738 7.66741C21.6738 7.00485 21.1031 6.46774 20.3992 6.46774C19.6952 6.46774 19.1245 7.00485 19.1245 7.66741C19.1245 8.32997 19.6952 8.86708 20.3992 8.86708Z" stroke="#BDBDC1" stroke-width="1.69953" stroke-linecap="round" stroke-linejoin="round"/>
</svg>
