<svg width="31" height="32" viewBox="0 0 31 32" fill="none" xmlns="http://www.w3.org/2000/svg">
<path d="M20.8693 22.4116C20.3879 21.3329 19.6046 20.4166 18.6139 19.7733C17.6233 19.1301 16.4675 18.7873 15.2863 18.7865C14.1051 18.7873 12.9494 19.1301 11.9587 19.7733C10.968 20.4166 10.1847 21.3329 9.70337 22.4116" stroke="#8C10FE" stroke-width="1.69953" stroke-linecap="round" stroke-linejoin="round"/>
<path d="M15.2863 14.1977C16.9759 14.1977 18.3455 12.8281 18.3455 11.1386C18.3455 9.44907 16.9759 8.07944 15.2863 8.07944C13.5968 8.07944 12.2272 9.44907 12.2272 11.1386C12.2272 12.8281 13.5968 14.1977 15.2863 14.1977Z" stroke="#8C10FE" stroke-width="1.69953" stroke-linecap="round" stroke-linejoin="round"/>
<path d="M15.2863 29.4935C22.8892 29.4935 29.0525 23.3302 29.0525 15.7273C29.0525 8.12447 22.8892 1.96114 15.2863 1.96114C7.68348 1.96114 1.52014 8.12447 1.52014 15.7273C1.52014 23.3302 7.68348 29.4935 15.2863 29.4935Z" stroke="#222224" stroke-width="1.69953" stroke-linecap="round" stroke-linejoin="round"/>
</svg>
