<svg width="24" height="24" viewBox="0 0 24 24" fill="none" xmlns="http://www.w3.org/2000/svg">
<g clip-path="url(#clip0_68_124)">
<path d="M19.9997 1.33301H3.99967C2.52691 1.33301 1.33301 2.52691 1.33301 3.99967V19.9997C1.33301 21.4724 2.52691 22.6663 3.99967 22.6663H19.9997C21.4724 22.6663 22.6663 21.4724 22.6663 19.9997V3.99967C22.6663 2.52691 21.4724 1.33301 19.9997 1.33301Z" stroke="#4B4B4D" stroke-width="2" stroke-linecap="round" stroke-linejoin="round"/>
<path d="M6.66602 6.99968C8.43935 6.99968 8.43935 8.99968 10.2127 8.99968C11.986 8.99968 11.9993 6.99968 13.7727 6.99968C15.546 6.99968 15.5593 8.99968 17.3327 8.99968" stroke="#4B4B4D" stroke-width="2" stroke-linecap="round" stroke-linejoin="round"/>
<path d="M6.66602 14.9997C8.43935 14.9997 8.43935 16.9997 10.2127 16.9997C11.986 16.9997 11.9993 14.9997 13.7727 14.9997C15.546 14.9997 15.5593 16.9997 17.3327 16.9997" stroke="#4B4B4D" stroke-width="2" stroke-linecap="round" stroke-linejoin="round"/>
</g>
<defs>
<clipPath id="clip0_68_124">
<rect width="24" height="24" fill="white"/>
</clipPath>
</defs>
</svg>
