<svg width="24" height="24" viewBox="0 0 24 24" fill="none" xmlns="http://www.w3.org/2000/svg">
<path d="M6.88867 6.0002H16.6664" stroke="#4B4B4D" stroke-width="2" stroke-linecap="round" stroke-linejoin="round"/>
<path d="M6.88867 10.8002H16.6664" stroke="#4B4B4D" stroke-width="2" stroke-linecap="round" stroke-linejoin="round"/>
<path d="M19.1111 1.2002H4.44444C3.09441 1.2002 2 2.27471 2 3.6002V20.4002C2 21.7257 3.09441 22.8002 4.44444 22.8002H19.1111C20.4611 22.8002 21.5556 21.7257 21.5556 20.4002V3.6002C21.5556 2.27471 20.4611 1.2002 19.1111 1.2002Z" stroke="#4B4B4D" stroke-width="2" stroke-linecap="round" stroke-linejoin="round"/>
<path d="M2 15.6002H7.5C7.98623 15.6002 8.45255 15.7898 8.79636 16.1274C9.14018 16.465 9.33333 16.9228 9.33333 17.4002V17.4002C9.33333 17.8776 9.52649 18.3354 9.8703 18.673C10.2141 19.0106 10.6804 19.2002 11.1667 19.2002H12.3889C12.8751 19.2002 13.3414 19.0106 13.6853 18.673C14.0291 18.3354 14.2222 17.8776 14.2222 17.4002C14.2222 16.9228 14.4154 16.465 14.7592 16.1274C15.103 15.7898 15.5693 15.6002 16.0556 15.6002H21.5556" stroke="#4B4B4D" stroke-width="2" stroke-linecap="round" stroke-linejoin="round"/>
</svg>
