<svg width="25" height="16" viewBox="0 0 25 16" fill="none" xmlns="http://www.w3.org/2000/svg">
<path d="M12.9219 15.7393C11.7383 15.7393 10.6191 15.5957 9.56445 15.3086C8.51562 15.0215 7.5459 14.6436 6.65527 14.1748C5.77051 13.7061 4.97363 13.1904 4.26465 12.6279C3.56152 12.0596 2.96094 11.4912 2.46289 10.9229C1.96484 10.3486 1.58398 9.82129 1.32031 9.34082C1.0625 8.85449 0.933594 8.46191 0.933594 8.16309C0.933594 7.87012 1.0625 7.4834 1.32031 7.00293C1.58398 6.5166 1.96484 5.98926 2.46289 5.4209C2.96094 4.84668 3.56152 4.27832 4.26465 3.71582C4.97363 3.14746 5.77051 2.62891 6.65527 2.16016C7.5459 1.69141 8.51562 1.31348 9.56445 1.02637C10.6191 0.739258 11.7383 0.595703 12.9219 0.595703C14.1172 0.595703 15.2422 0.739258 16.2969 1.02637C17.3516 1.31348 18.3242 1.69141 19.2148 2.16016C20.1055 2.62891 20.8994 3.14746 21.5967 3.71582C22.2998 4.27832 22.8975 4.84668 23.3896 5.4209C23.8818 5.98926 24.2568 6.5166 24.5146 7.00293C24.7725 7.4834 24.9014 7.87012 24.9014 8.16309C24.9014 8.46191 24.7725 8.85449 24.5146 9.34082C24.2568 9.82129 23.8818 10.3486 23.3896 10.9229C22.8975 11.4912 22.3027 12.0596 21.6055 12.6279C20.9082 13.1904 20.1143 13.7061 19.2236 14.1748C18.333 14.6436 17.3574 15.0215 16.2969 15.3086C15.2422 15.5957 14.1172 15.7393 12.9219 15.7393ZM12.9219 12.9092C13.5781 12.9092 14.1934 12.7861 14.7676 12.54C15.3477 12.2881 15.8545 11.9424 16.2881 11.5029C16.7275 11.0635 17.0703 10.5596 17.3164 9.99121C17.5625 9.42285 17.6855 8.81641 17.6855 8.17188C17.6855 7.50977 17.5625 6.8916 17.3164 6.31738C17.0703 5.74316 16.7275 5.23926 16.2881 4.80566C15.8545 4.37207 15.3477 4.03516 14.7676 3.79492C14.1934 3.55469 13.5781 3.43457 12.9219 3.43457C12.2598 3.43457 11.6387 3.55469 11.0586 3.79492C10.4844 4.03516 9.97754 4.37207 9.53809 4.80566C9.10449 5.23926 8.76465 5.74316 8.51855 6.31738C8.27246 6.8916 8.15234 7.50977 8.1582 8.17188C8.1582 8.81641 8.28125 9.42285 8.52734 9.99121C8.77344 10.5596 9.11328 11.0635 9.54688 11.5029C9.98633 11.9424 10.4932 12.2881 11.0674 12.54C11.6416 12.7861 12.2598 12.9092 12.9219 12.9092ZM12.9219 9.97363C12.418 9.97363 11.9873 9.79785 11.6299 9.44629C11.2783 9.08887 11.1025 8.66406 11.1025 8.17188C11.1025 7.67969 11.2783 7.25488 11.6299 6.89746C11.9873 6.54004 12.418 6.36133 12.9219 6.36133C13.4199 6.36133 13.8477 6.54004 14.2051 6.89746C14.5625 7.25488 14.7412 7.67969 14.7412 8.17188C14.7412 8.66406 14.5625 9.08887 14.2051 9.44629C13.8477 9.79785 13.4199 9.97363 12.9219 9.97363Z" fill="#BDBDC1"/>
</svg>
